<svg xmlns="http://www.w3.org/2000/svg" viewBox="0 0 512 512"><path d="M329.35,498.08V226.72h68.42V497.5H329.35ZM404.73,41.75c0-23.2-18-41.75-41.17-41.75a41.58,41.58,0,0,0-41.75,41.75c0,23.19,18.56,41.17,41.75,41.17S404.73,64.94,404.73,41.75Z" transform="translate(0 0)" style="fill:#b01c87"/><path d="M183.23,14.5V285.28H114.81V14.5Zm-76,455.75c0,23.2,18,41.75,41.17,41.75a41.58,41.58,0,0,0,41.75-41.75c0-23.19-18.56-41.17-41.75-41.17C125.25,429.66,107.27,447.64,107.27,470.25Z" transform="translate(0 0)" style="fill:#d30c55"/><path d="M498.08,183.23H226.72V114.81H497.5v68.42Zm-456.33-76c-23.2,0-41.75,18-41.75,41.17a41.58,41.58,0,0,0,41.75,41.75c23.19,0,41.17-18.56,41.17-41.75S64.94,107.27,41.75,107.27Z" transform="translate(0 0)" style="fill:#d40e8c"/><path d="M14.5,329.35H285.28v68.42H14.5Zm455.75,75.38c23.2,0,41.75-18,41.75-41.17a41.58,41.58,0,0,0-41.75-41.75c-23.19,0-41.17,18.56-41.17,41.75C429.66,386.75,447.64,404.73,470.25,404.73Z" transform="translate(0 0)" style="fill:#ed1944"/></svg>