<svg xmlns="http://www.w3.org/2000/svg" viewBox="0 0 246.15 200.01"><path d="M222,51.29c.15,2.17.15,4.34.15,6.53,0,66.73-50.8,143.69-143.69,143.69v0A143,143,0,0,1,1,178.83a102.73,102.73,0,0,0,12,.73A101.41,101.41,0,0,0,75.74,157.9a50.56,50.56,0,0,1-47.18-35.07,50.34,50.34,0,0,0,22.8-.87,50.51,50.51,0,0,1-40.51-49.5v-.64a50.18,50.18,0,0,0,22.92,6.32A50.56,50.56,0,0,1,18.14,10.71,143.33,143.33,0,0,0,122.22,63.47a50.55,50.55,0,0,1,86.06-46.06A101.34,101.34,0,0,0,240.35,5.15a50.69,50.69,0,0,1-22.2,27.93,100.43,100.43,0,0,0,29-7.95A102.59,102.59,0,0,1,222,51.29Z" transform="translate(-1 -1.5)" style="fill:#fff"/></svg>